<svg xmlns="http://www.w3.org/2000/svg" xmlns:xlink="http://www.w3.org/1999/xlink" width="6.75in" height="1.08in" viewBox="0 0 485.87 77.44">
  <defs>
    <style>
      .a {
        fill: none;
      }

      .b {
        fill: #0d194f;
      }

      .c {
        fill: #408fed;
      }

      .d {
        clip-path: url(#a);
      }
    </style>
    <clipPath id="a">
      <polygon class="a" points="12.1 0.86 77.85 0.86 65.75 76.46 0 76.46 12.1 0.86"/>
    </clipPath>
  </defs>
  <title>Aquametric</title>
  <polygon class="b" points="12.1 0.86 77.85 0.86 65.75 76.46 0 76.46 12.1 0.86"/>
  <circle class="c" cx="37.9" cy="43.96" r="23.58"/>
  <circle class="b" cx="37.9" cy="43.96" r="20.41"/>
  <circle class="c" cx="37.9" cy="43.96" r="14.39"/>
  <circle class="b" cx="37.9" cy="43.96" r="11.12"/>
  <circle class="c" cx="37.9" cy="43.96" r="4.62"/>
  <g>
    <path class="b" d="M114.33,76.46h-12l-2-13.71H85.71l-2,13.71H72.75L84.85.86h17.39Zm-27.11-24H98.67L93,14.26Z"/>
    <path class="b" d="M159.09,64.48v13l-22.29-.11q-8.76,0-13.39-4.92t-4.65-14.09V19q0-9.18,4.65-14.1T136.8,0q8.74,0,13.39,4.91T154.83,19V58.32a22.13,22.13,0,0,1-2.26,10.58Zm-28.45-5.4c0,2.73.56,4.66,1.68,5.77a6.81,6.81,0,0,0,9,0c1.11-1.11,1.67-3,1.67-5.77V18.25q0-4.1-1.67-5.78a6.84,6.84,0,0,0-9,0q-1.68,1.68-1.68,5.78Zm28.45,5.4,0,0v7.37l-7.24-2.52-6.36-4.85Z"/>
    <path class="b" d="M175.84.86V59.18q0,4.11,1.67,5.73a7,7,0,0,0,9,0q1.67-1.62,1.67-5.73V.86h11.23V58.43q0,9.18-4.48,14.09t-13.23,4.92q-8.74,0-13.23-4.92T164,58.43V.86Z"/>
    <path class="b" d="M245.93,76.46h-12l-2.05-13.71H217.31l-2.05,13.71H204.35L216.45.86h17.39Zm-27.11-24h11.45l-5.72-38.23Z"/>
    <path class="b" d="M276.6,54.54,284.7.86h16.53v75.6H290V22.25l-8.21,54.21H270.55L261.7,23V76.46H251.33V.86h16.53Z"/>
    <path class="b" d="M321.75,32.72h16.3v10.8h-16.3V65.66h20.52v10.8h-32.4V.86h32.4v10.8H321.75Z"/>
    <path class="b" d="M346.37.86h36.72v10.8H370.67v64.8H358.79V11.66H346.37Z"/>
    <path class="b" d="M424.44,76.46h-12.1l-.09-21.16c0-3.53-.61-6-1.84-7.46s-3.2-2.16-5.94-2.16h-4.1V76.46H388.49V.86h17.93c6.19,0,10.67,1.45,13.44,4.32S424,12.42,424,18.25v5.94q0,11.67-7.78,15.34a10.59,10.59,0,0,1,6.21,6,27,27,0,0,1,1.68,10.1Zm-24.07-64.8V34.88H405a7.49,7.49,0,0,0,5.24-1.72c1.26-1.16,1.89-3.24,1.89-6.27V19.44c0-2.74-.49-4.71-1.46-5.94a5.52,5.52,0,0,0-4.59-1.84Z"/>
    <path class="b" d="M430.9.86h11.88v75.6H430.9Z"/>
    <path class="b" d="M485.87,48.28v10q0,9.18-4.48,14.09t-13.23,4.92q-8.75,0-13.23-4.92t-4.48-14.09V19q0-9.18,4.48-14.1T468.16,0q8.74,0,13.23,4.91T485.87,19v7.34H474.64v-8.1q0-4.1-1.67-5.78a6.86,6.86,0,0,0-9,0q-1.67,1.68-1.67,5.78V59.08q0,4.1,1.67,5.72a7,7,0,0,0,9,0q1.66-1.62,1.67-5.72V48.28Z"/>
  </g>
  <g class="d">
    <g>
      <path class="c" d="M103.31,104.29c-3.25,0-5.52-2-7.72-3.83s-4.33-3.72-7.53-3.72c-3.52,0-5.23,1.47-7.2,3.16-2.2,1.89-4.7,4-9.55,4s-7.35-2.15-9.55-4c-2-1.69-3.68-3.16-7.21-3.16s-5.22,1.47-7.2,3.16c-2.2,1.89-4.7,4-9.55,4s-7.35-2.15-9.55-4c-2-1.69-3.69-3.16-7.21-3.16s-5.23,1.47-7.21,3.16c-2.2,1.89-4.69,4-9.55,4-5.66,0-7.74-1.63-10.16-3.51a22.46,22.46,0,0,0-5.92-3.56A11.11,11.11,0,0,0-14,96.28c-1.64-.32-3.89-.74-3.89-4.6,0-2.85,2.67-4.12,4.63-5.05,1.14-.55,2.57-1.23,2.57-1.81s-1.43-1.25-2.57-1.8c-2-.93-4.63-2.2-4.63-5s2.67-4.13,4.63-5.06c1.14-.54,2.57-1.22,2.57-1.8s-1.43-1.26-2.57-1.81c-2-.93-4.63-2.2-4.63-5s2.67-4.13,4.63-5.06c1.14-.55,2.57-1.23,2.57-1.81,0-.89-1.73-2.94-2.76-4.16-1.85-2.18-3.31-3.91-2.86-5.76a2.81,2.81,0,0,1,1.77-1.94A9.41,9.41,0,0,1-11,44.77c3.25,0,5.52,1.95,7.71,3.83s4.34,3.72,7.53,3.72c3.53,0,5.23-1.47,7.21-3.17,2.2-1.89,4.69-4,9.55-4s7.35,2.14,9.55,4c2,1.7,3.68,3.17,7.2,3.17S43,50.85,45,49.15c2.2-1.89,4.69-4,9.55-4s7.35,2.14,9.55,4c2,1.7,3.68,3.17,7.21,3.17s5.23-1.47,7.2-3.17c2.2-1.89,4.7-4,9.55-4,5.66,0,7.75,1.62,10.17,3.51a22.56,22.56,0,0,0,5.91,3.55,10.45,10.45,0,0,0,2.2.6c1.64.31,3.88.74,3.88,4.59,0,2.85-2.67,4.13-4.62,5.06-1.15.54-2.58,1.22-2.58,1.8s1.43,1.26,2.58,1.81c2,.93,4.62,2.2,4.62,5s-2.67,4.12-4.62,5c-1.15.55-2.58,1.23-2.58,1.81s1.43,1.25,2.58,1.8c2,.93,4.62,2.21,4.62,5.06,0,2.69-2.54,4.2-4.59,5.43-.85.5-2.43,1.44-2.54,1.91a13.13,13.13,0,0,0,3.52,5.14c1.36,1.41,2.52,2.62,2.19,4.19a2.88,2.88,0,0,1-1.93,2.06A9.36,9.36,0,0,1,103.31,104.29Z"/>
      <path class="b" d="M-11,46.57c5.55,0,8,7.55,15.25,7.55,8.38,0,8.38-7.2,16.76-7.2s8.38,7.2,16.75,7.2,8.38-7.2,16.76-7.2,8.38,7.2,16.75,7.2,8.38-7.2,16.76-7.2,7.65,3.76,15.4,6.93c3.17,1.3,5,.1,5,3.52s-7.2,3.43-7.2,6.86,7.2,3.43,7.2,6.86-7.2,3.43-7.2,6.86,7.2,3.43,7.2,6.86-8,4.56-7,7.86c1.53,5.32,8,7.9,4.82,9.2a7.55,7.55,0,0,1-2.87.62c-5.54,0-8-7.55-15.25-7.55-8.38,0-8.38,7.2-16.75,7.2s-8.38-7.2-16.76-7.2-8.37,7.2-16.75,7.2-8.38-7.2-16.76-7.2-8.38,7.2-16.76,7.2-7.64-3.76-15.4-6.93c-3.17-1.3-5-.1-5-3.53s7.2-3.43,7.2-6.86-7.2-3.43-7.2-6.85,7.2-3.43,7.2-6.86-7.2-3.43-7.2-6.86,7.2-3.43,7.2-6.87-8.14-8.89-5-10.19A7.32,7.32,0,0,1-11,46.57m0-3.6a11.33,11.33,0,0,0-4.23.88A4.6,4.6,0,0,0-18,47c-.67,2.73,1.23,5,3.23,7.34a31,31,0,0,1,2,2.57c-.38.21-.86.44-1.23.62-2.11,1-5.65,2.69-5.65,6.68s3.54,5.67,5.65,6.68l.38.18-.38.18c-2.11,1-5.65,2.69-5.65,6.68s3.54,5.67,5.65,6.68l.38.17L-14,85c-2.11,1-5.65,2.69-5.65,6.68,0,5.35,3.75,6.06,5.35,6.36a9,9,0,0,1,1.85.5A20.82,20.82,0,0,1-7,101.85c2.46,1.91,5,3.89,11.27,3.89,5.52,0,8.41-2.48,10.73-4.47,1.91-1.64,3.17-2.73,6-2.73s4.12,1.09,6,2.73c2.32,2,5.2,4.47,10.73,4.47s8.41-2.48,10.72-4.47c1.92-1.64,3.18-2.73,6-2.73s4.12,1.09,6,2.73c2.32,2,5.2,4.47,10.73,4.47s8.4-2.48,10.72-4.47c1.91-1.64,3.18-2.73,6-2.73,2.41,0,4,1.25,6.36,3.28s5,4.27,8.89,4.27a11.21,11.21,0,0,0,4.24-.89,4.63,4.63,0,0,0,3-3.35c.53-2.5-1.16-4.26-2.65-5.81a15.13,15.13,0,0,1-2.71-3.42c.41-.28.94-.6,1.35-.84,2.18-1.3,5.47-3.26,5.47-7,0-4-3.53-5.68-5.65-6.68L106,78l.37-.18c2.12-1,5.65-2.69,5.65-6.68s-3.53-5.67-5.65-6.68l-.37-.18.37-.18c2.12-1,5.65-2.69,5.65-6.68,0-5.34-3.74-6-5.34-6.36a9.67,9.67,0,0,1-1.86-.49,21,21,0,0,1-5.49-3.31c-2.45-1.91-5-3.89-11.27-3.89-5.52,0-8.4,2.47-10.72,4.47-1.91,1.64-3.18,2.73-6,2.73s-4.11-1.09-6-2.73c-2.31-2-5.2-4.47-10.72-4.47s-8.41,2.47-10.73,4.47c-1.91,1.64-3.17,2.73-6,2.73s-4.12-1.09-6-2.73c-2.31-2-5.2-4.47-10.72-4.47s-8.41,2.47-10.72,4.47c-1.92,1.64-3.18,2.73-6,2.73-2.4,0-4-1.25-6.36-3.29S-7.06,43-11,43Z"/>
    </g>
  </g>
</svg>
