<svg xmlns="http://www.w3.org/2000/svg" width="1.38in" height="1.44in" viewBox="0 0 99.39 103.96">
  <defs>
    <style>
      .a {
        fill: #0d194f;
      }
    </style>
  </defs>
  <title>Aquametric</title>
  <path class="a" d="M88.93,50.06a37.6,37.6,0,0,1-.71,7.34s0,0,0,0a32.9,32.9,0,0,0-4.61-3.47,30.45,30.45,0,0,0,.24-3.84,33.06,33.06,0,0,0-66.12,0,28.39,28.39,0,0,0,.23,3.7,30.09,30.09,0,0,0-4.68,3.46,36.68,36.68,0,0,1-.68-7.16,38.19,38.19,0,0,1,76.38,0Z"/>
  <path class="a" d="M74.05,50.06c0,.34,0,.67,0,1-.39,0-.78,0-1.19,0a23.83,23.83,0,0,0-4.13.35c0-.43,0-.87,0-1.33a18,18,0,0,0-36,0,13,13,0,0,0,.06,1.4,21.28,21.28,0,0,0-4.4-.42c-.31,0-.63,0-.93,0,0-.34,0-.67,0-1a23.31,23.31,0,0,1,46.62,0Z"/>
  <path class="a" d="M58.22,50.06a7.48,7.48,0,1,1-7.48-7.48A7.49,7.49,0,0,1,58.22,50.06Z"/>
  <path class="a" d="M94.7,64.67v4.77a16.08,16.08,0,0,1-9.44-3h0a36.43,36.43,0,0,1-2.85-2.29L81.14,63a11.78,11.78,0,0,0-8.31-3.12c-.34,0-.66,0-1,0-4,.24-6,2-8.58,4.16-2.77,2.38-6.22,5.36-12.67,5.36s-9.9-3-12.67-5.36C35.47,62,33.46,60.25,29.63,60a12.23,12.23,0,0,0-1.24-.05,11.53,11.53,0,0,0-8.12,3c-.47.37-.95.79-1.44,1.21-.81.7-1.68,1.44-2.67,2.16a16.28,16.28,0,0,1-10,3.2,15.25,15.25,0,0,1-1.54-.08V64.56a9.54,9.54,0,0,0,1.54.11,11.65,11.65,0,0,0,8.18-3.06c.45-.35.91-.74,1.37-1.15.93-.77,1.88-1.6,3-2.36a15.84,15.84,0,0,1,9.31-3h.41a17.73,17.73,0,0,1,5.31.76v0a20.14,20.14,0,0,1,7.35,4.56c2.63,2.27,4.88,4.21,9.56,4.21s6.93-1.94,9.56-4.21a20.08,20.08,0,0,1,7.64-4.66,17.82,17.82,0,0,1,5-.68h.67a15.94,15.94,0,0,1,9.28,3.13c1,.71,1.88,1.47,2.74,2.2.53.46,1,.91,1.57,1.32h0A11.63,11.63,0,0,0,94.7,64.67Z"/>
  <g>
    <path class="a" d="M13.46,91.86H10.82l-.45-3H7.17l-.45,3H4.32L7,75.25H10.8Zm-6-5.27H10L8.76,78.2Z"/>
    <path class="a" d="M23.29,89.23v2.84l-4.9,0A3.85,3.85,0,0,1,15.45,91a4.33,4.33,0,0,1-1-3.09V79.24a4.36,4.36,0,0,1,1-3.1,3.85,3.85,0,0,1,2.94-1.08,3.85,3.85,0,0,1,2.94,1.08,4.36,4.36,0,0,1,1,3.1v8.64a4.77,4.77,0,0,1-.5,2.32ZM17,88a1.74,1.74,0,0,0,.37,1.27,1.48,1.48,0,0,0,2,0A1.74,1.74,0,0,0,19.74,88v-9a1.75,1.75,0,0,0-.37-1.27,1.51,1.51,0,0,0-2,0A1.75,1.75,0,0,0,17,79.07Zm6.25,1.19Zm0,0v1.62l-1.59-.56-1.4-1.06Z"/>
    <path class="a" d="M27,75.25V88.06a1.74,1.74,0,0,0,.36,1.26,1.37,1.37,0,0,0,1,.36,1.33,1.33,0,0,0,1-.36,1.69,1.69,0,0,0,.37-1.26V75.25h2.47V87.9a4.4,4.4,0,0,1-1,3.09,3.71,3.71,0,0,1-2.9,1.08A3.75,3.75,0,0,1,25.34,91a4.39,4.39,0,0,1-1-3.09V75.25Z"/>
    <path class="a" d="M42.36,91.86H39.73l-.45-3h-3.2l-.45,3h-2.4l2.66-16.61h3.82Zm-6-5.27h2.51L37.67,78.2Z"/>
    <path class="a" d="M49.1,87l1.78-11.79h3.63V91.86H52V80l-1.8,11.91H47.77L45.83,80.12V91.86H43.55V75.25h3.63Z"/>
    <path class="a" d="M59,82.25H62.6v2.37H59v4.87h4.5v2.37H56.41V75.25h7.11v2.38H59Z"/>
    <path class="a" d="M64.42,75.25h8.07v2.38H69.76V91.86H67.15V77.63H64.42Z"/>
    <path class="a" d="M81.57,91.86H78.92l0-4.65a2.57,2.57,0,0,0-.41-1.64,1.64,1.64,0,0,0-1.3-.47h-.9v6.76H73.68V75.25h3.93a3.33,3.33,0,0,1,3.87,3.82v1.31c0,1.71-.57,2.83-1.71,3.37a2.36,2.36,0,0,1,1.37,1.31,6.06,6.06,0,0,1,.37,2.22ZM76.29,77.63v5.1h1a1.66,1.66,0,0,0,1.15-.38A1.86,1.86,0,0,0,78.87,81V79.33a2.05,2.05,0,0,0-.32-1.3,1.2,1.2,0,0,0-1-.4Z"/>
    <path class="a" d="M83,75.25H85.6V91.86H83Z"/>
    <path class="a" d="M95.07,85.67v2.21a4.41,4.41,0,0,1-1,3.09,3.71,3.71,0,0,1-2.9,1.08A3.75,3.75,0,0,1,88.27,91a4.46,4.46,0,0,1-1-3.09V79.24a4.49,4.49,0,0,1,1-3.1,3.75,3.75,0,0,1,2.91-1.08,3.71,3.71,0,0,1,2.9,1.08,4.44,4.44,0,0,1,1,3.1v1.61H92.6V79.07a1.75,1.75,0,0,0-.37-1.27,1.33,1.33,0,0,0-1-.36,1.37,1.37,0,0,0-1,.36,1.8,1.8,0,0,0-.36,1.27v9a1.76,1.76,0,0,0,.36,1.26,1.36,1.36,0,0,0,1,.35,1.32,1.32,0,0,0,1-.35A1.71,1.71,0,0,0,92.6,88V85.67Z"/>
  </g>
</svg>
